<svg
  width="512"
  height="512"
  viewBox="0 0 512 512"
  fill="none"
  xmlns="http://www.w3.org/2000/svg"
>
  <defs>
    <linearGradient id="bg" x1="64" y1="44" x2="452" y2="472" gradientUnits="userSpaceOnUse">
      <stop stop-color="#111C37" />
      <stop offset="1" stop-color="#0A0F1D" />
    </linearGradient>
    <linearGradient id="ring" x1="126" y1="96" x2="391" y2="417" gradientUnits="userSpaceOnUse">
      <stop stop-color="#45A3FF" />
      <stop offset="1" stop-color="#7D5CFF" />
    </linearGradient>
    <linearGradient id="bolt" x1="209" y1="136" x2="303" y2="354" gradientUnits="userSpaceOnUse">
      <stop stop-color="#7DFFB3" />
      <stop offset="1" stop-color="#40CBFF" />
    </linearGradient>
  </defs>

  <rect x="16" y="16" width="480" height="480" rx="112" fill="url(#bg)" />
  <rect
    x="16"
    y="16"
    width="480"
    height="480"
    rx="112"
    stroke="#FFFFFF"
    stroke-opacity="0.12"
    stroke-width="4"
  />

  <path
    d="M202.5 165.2h42.2a74.6 74.6 0 0 1 74.7 74.6v2.9a74.6 74.6 0 0 1-74.7 74.6h-42.2a74.6 74.6 0 0 1-74.6-74.6v-2.9a74.6 74.6 0 0 1 74.6-74.6Z"
    stroke="url(#ring)"
    stroke-width="30"
    stroke-linecap="round"
  />
  <path
    d="M309.5 194.6h20a52.3 52.3 0 0 1 52.3 52.3v9.8a52.3 52.3 0 0 1-52.3 52.3h-20"
    stroke="#6D7CFF"
    stroke-width="24"
    stroke-linecap="round"
  />
  <path
    d="M283.7 130 213 247.6h55.8l-40.7 134.4L299 264.4h-55.3L283.7 130Z"
    fill="url(#bolt)"
  />
</svg>
